<svg width="221" height="64" viewBox="0 0 221 64" fill="none" xmlns="http://www.w3.org/2000/svg">
<g id="Group">
<path id="BG" d="M212.815 64H8.18519C3.68538 64 0 60.398 0 56V8.00001C0 3.602 3.68538 3.8147e-06 8.18519 3.8147e-06H212.815C217.315 3.8147e-06 221 3.602 221 8.00001V56C221 60.398 217.315 64 212.815 64Z" fill="black"/>
<path id="Border" d="M212.815 1.282C216.605 1.282 219.688 4.296 219.688 8.00001V56C219.688 59.704 216.605 62.718 212.815 62.718H8.18519C4.39544 62.718 1.31168 59.704 1.31168 56V8.00001C1.31168 4.296 4.39544 1.282 8.18519 1.282H212.815ZM212.815 3.8147e-06H8.18519C3.68538 3.8147e-06 0 3.602 0 8.00001V56C0 60.398 3.68538 64 8.18519 64H212.815C217.315 64 221 60.398 221 56V8.00001C221 3.602 217.315 3.8147e-06 212.815 3.8147e-06Z" fill="#A6A6A6"/>
<g id="Icon">
<path id="Vector" d="M17.0825 12.0617C16.6016 12.5537 16.3233 13.3197 16.3233 14.3117V49.6957C16.3233 50.6877 16.6016 51.4537 17.0825 51.9457L17.2012 52.0537L37.4881 32.2337V31.7657L17.2012 11.9457L17.0825 12.0617Z" fill="url(#paint0_linear_446_4423)"/>
<path id="Vector_2" d="M44.2429 38.8438L37.4881 32.2338V31.7657L44.2511 25.1558L44.4025 25.2418L52.4117 29.6958C54.6974 30.9597 54.6974 33.0398 52.4117 34.3117L44.4025 38.7577L44.2429 38.8438Z" fill="url(#paint1_linear_446_4423)"/>
<path id="Vector_3" d="M44.4026 38.758L37.4881 32L17.0825 51.946C17.8416 52.726 19.0796 52.82 20.4875 52.04L44.4026 38.758Z" fill="url(#paint2_linear_446_4423)"/>
<path id="Vector_4" d="M44.4026 25.242L20.4875 11.96C19.0796 11.188 17.8416 11.282 17.0825 12.062L37.4881 32L44.4026 25.242Z" fill="url(#paint3_linear_446_4423)"/>
</g>
<g id="GET IT ON">
<path id="G" d="M77.6242 16.3894C77.6242 17.7254 77.2149 18.7954 76.4087 19.5934C75.4817 20.5394 74.2744 21.0154 72.7949 21.0154C71.3809 21.0154 70.1736 20.5314 69.1832 19.5774C68.1908 18.6094 67.6956 17.4214 67.6956 15.9994C67.6956 14.5774 68.1908 13.3894 69.1832 12.4294C70.1736 11.4674 71.3809 10.9834 72.7949 10.9834C73.4989 10.9834 74.17 11.1254 74.8105 11.3894C75.449 11.6554 75.9687 12.0154 76.3452 12.4594L75.4899 13.3034C74.833 12.5454 73.9388 12.1714 72.7949 12.1714C71.7636 12.1714 70.8694 12.5234 70.1102 13.2334C69.3592 13.9454 68.9827 14.8674 68.9827 15.9994C68.9827 17.1314 69.3592 18.0614 70.1102 18.7734C70.8694 19.4754 71.7636 19.8354 72.7949 19.8354C73.8897 19.8354 74.8105 19.4754 75.537 18.7654C76.0158 18.2954 76.288 17.6474 76.3596 16.8194H72.7949V15.6634H77.5505C77.6078 15.9134 77.6242 16.1554 77.6242 16.3894Z" fill="white" stroke="white" stroke-width="0.16" stroke-miterlimit="10"/>
<path id="E" d="M85.1689 12.3821H80.7018V15.4221H84.7289V16.5781H80.7018V19.6181H85.1689V20.7961H79.4372V11.2041H85.1689V12.3821Z" fill="white" stroke="white" stroke-width="0.16" stroke-miterlimit="10"/>
<path id="T" d="M90.4933 20.7961H89.2287V12.3821H86.4887V11.2041H93.2353V12.3821H90.4933V20.7961Z" fill="white" stroke="white" stroke-width="0.16" stroke-miterlimit="10"/>
<path id="I" d="M98.1179 20.7961V11.2041H99.3804V20.7961H98.1179Z" fill="white" stroke="white" stroke-width="0.16" stroke-miterlimit="10"/>
<path id="T_2" d="M104.977 20.7961H103.723V12.3821H100.972V11.2041H107.727V12.3821H104.977V20.7961Z" fill="white" stroke="white" stroke-width="0.16" stroke-miterlimit="10"/>
<path id="O" d="M120.5 19.5614C119.532 20.5314 118.333 21.0154 116.903 21.0154C115.464 21.0154 114.265 20.5314 113.297 19.5614C112.331 18.5934 111.851 17.4054 111.851 15.9994C111.851 14.5934 112.331 13.4054 113.297 12.4374C114.265 11.4674 115.464 10.9834 116.903 10.9834C118.325 10.9834 119.524 11.4674 120.492 12.4454C121.466 13.4214 121.947 14.6014 121.947 15.9994C121.947 17.4054 121.466 18.5934 120.5 19.5614ZM114.232 18.7574C114.961 19.4754 115.847 19.8354 116.903 19.8354C117.951 19.8354 118.845 19.4754 119.565 18.7574C120.292 18.0394 120.66 17.1174 120.66 15.9994C120.66 14.8814 120.292 13.9594 119.565 13.2414C118.845 12.5234 117.951 12.1634 116.903 12.1634C115.847 12.1634 114.961 12.5234 114.232 13.2414C113.506 13.9594 113.138 14.8814 113.138 15.9994C113.138 17.1174 113.506 18.0394 114.232 18.7574Z" fill="white" stroke="white" stroke-width="0.16" stroke-miterlimit="10"/>
<path id="N" d="M123.721 20.7961V11.2041H125.256L130.028 18.6641H130.083L130.028 16.8201V11.2041H131.29V20.7961H129.973L124.975 12.9681H124.92L124.975 14.8201V20.7961H123.721Z" fill="white" stroke="white" stroke-width="0.16" stroke-miterlimit="10"/>
</g>
<g id="Google Play">
<path id="Google Play_2" d="M111.54 34.8044C107.695 34.8044 104.553 37.6644 104.553 41.6104C104.553 45.5244 107.695 48.4144 111.54 48.4144C115.393 48.4144 118.534 45.5244 118.534 41.6104C118.534 37.6644 115.393 34.8044 111.54 34.8044ZM111.54 45.7344C109.43 45.7344 107.615 44.0324 107.615 41.6104C107.615 39.1564 109.43 37.4844 111.54 37.4844C113.649 37.4844 115.472 39.1564 115.472 41.6104C115.472 44.0324 113.649 45.7344 111.54 45.7344ZM96.2967 34.8044C92.4435 34.8044 89.3106 37.6644 89.3106 41.6104C89.3106 45.5244 92.4435 48.4144 96.2967 48.4144C100.148 48.4144 103.283 45.5244 103.283 41.6104C103.283 37.6644 100.148 34.8044 96.2967 34.8044ZM96.2967 45.7344C94.1849 45.7344 92.3637 44.0324 92.3637 41.6104C92.3637 39.1564 94.1849 37.4844 96.2967 37.4844C98.4064 37.4844 100.221 39.1564 100.221 41.6104C100.221 44.0324 98.4064 45.7344 96.2967 45.7344ZM78.1583 36.8904V39.7824H85.2242C85.0175 41.3984 84.465 42.5864 83.6178 43.4144C82.5865 44.4144 80.9801 45.5244 78.1583 45.5244C73.8099 45.5244 70.4049 42.0944 70.4049 37.8444C70.4049 33.5944 73.8099 30.1644 78.1583 30.1644C80.5095 30.1644 82.2202 31.0624 83.4828 32.2264L85.5679 30.1884C83.802 28.5404 81.4528 27.2744 78.1583 27.2744C72.1954 27.2744 67.184 32.0164 67.184 37.8444C67.184 43.6724 72.1954 48.4144 78.1583 48.4144C81.3812 48.4144 83.802 47.3824 85.705 45.4464C87.6552 43.5404 88.2629 40.8604 88.2629 38.6964C88.2629 38.0244 88.2056 37.4064 88.1033 36.8904H78.1583ZM152.328 39.1324C151.753 37.6104 149.979 34.8044 146.365 34.8044C142.784 34.8044 139.803 37.5624 139.803 41.6104C139.803 45.4224 142.754 48.4144 146.709 48.4144C149.908 48.4144 151.753 46.5084 152.512 45.3984L150.139 43.8524C149.347 44.9844 148.268 45.7344 146.709 45.7344C145.16 45.7344 144.049 45.0404 143.337 43.6724L152.65 39.9064L152.328 39.1324ZM142.834 41.3984C142.754 38.7744 144.919 37.4304 146.47 37.4304C147.685 37.4304 148.717 38.0244 149.06 38.8744L142.834 41.3984ZM135.264 48.0004H138.326V28.0004H135.264V48.0004ZM130.251 36.3204H130.149C129.461 35.5244 128.149 34.8044 126.488 34.8044C123.001 34.8044 119.813 37.7964 119.813 41.6324C119.813 45.4464 123.001 48.4144 126.488 48.4144C128.149 48.4144 129.461 47.6884 130.149 46.8684H130.251V47.8444C130.251 50.4464 128.829 51.8444 126.535 51.8444C124.664 51.8444 123.504 50.5244 123.025 49.4144L120.363 50.5004C121.131 52.3044 123.162 54.5244 126.535 54.5244C130.124 54.5244 133.152 52.4604 133.152 47.4384V35.2184H130.251V36.3204ZM126.75 45.7344C124.64 45.7344 122.874 44.0084 122.874 41.6324C122.874 39.2344 124.64 37.4844 126.75 37.4844C128.829 37.4844 130.468 39.2344 130.468 41.6324C130.468 44.0084 128.829 45.7344 126.75 45.7344ZM166.661 28.0004H159.339V48.0004H162.392V40.4224H166.661C170.051 40.4224 173.377 38.0244 173.377 34.2104C173.377 30.3984 170.043 28.0004 166.661 28.0004ZM166.74 37.6404H162.392V30.7824H166.74C169.02 30.7824 170.321 32.6324 170.321 34.2104C170.321 35.7584 169.02 37.6404 166.74 37.6404ZM185.613 34.7664C183.407 34.7664 181.114 35.7184 180.17 37.8284L182.88 38.9384C183.463 37.8284 184.535 37.4684 185.669 37.4684C187.252 37.4684 188.859 38.3984 188.883 40.0404V40.2504C188.331 39.9384 187.148 39.4764 185.693 39.4764C182.775 39.4764 179.802 41.0464 179.802 43.9764C179.802 46.6564 182.192 48.3824 184.879 48.3824C186.933 48.3824 188.067 47.4764 188.779 46.4224H188.883V47.9684H191.832V40.2964C191.832 36.7504 189.123 34.7664 185.613 34.7664ZM185.245 45.7264C184.246 45.7264 182.855 45.2424 182.855 44.0324C182.855 42.4844 184.59 41.8904 186.092 41.8904C187.437 41.8904 188.067 42.1804 188.883 42.5624C188.644 44.4144 187.013 45.7264 185.245 45.7264ZM202.575 35.2044L199.066 43.8744H198.961L195.333 35.2044H192.041L197.492 47.3204L194.382 54.0624H197.572L205.972 35.2044H202.575ZM175.054 48.0004H178.116V28.0004H175.054V48.0004Z" fill="white"/>
</g>
</g>
<defs>
<linearGradient id="paint0_linear_446_4423" x1="35.6869" y1="50.0642" x2="8.84209" y2="22.598" gradientUnits="userSpaceOnUse">
<stop stop-color="#00A0FF"/>
<stop offset="0.0066" stop-color="#00A1FF"/>
<stop offset="0.2601" stop-color="#00BEFF"/>
<stop offset="0.5122" stop-color="#00D2FF"/>
<stop offset="0.7604" stop-color="#00DFFF"/>
<stop offset="1" stop-color="#00E3FF"/>
</linearGradient>
<linearGradient id="paint1_linear_446_4423" x1="55.3881" y1="31.9975" x2="15.7769" y2="31.9975" gradientUnits="userSpaceOnUse">
<stop stop-color="#FFE000"/>
<stop offset="0.4087" stop-color="#FFBD00"/>
<stop offset="0.7754" stop-color="#FFA500"/>
<stop offset="1" stop-color="#FF9C00"/>
</linearGradient>
<linearGradient id="paint2_linear_446_4423" x1="40.6427" y1="28.3262" x2="4.23895" y2="-8.92022" gradientUnits="userSpaceOnUse">
<stop stop-color="#FF3A44"/>
<stop offset="1" stop-color="#C31162"/>
</linearGradient>
<linearGradient id="paint3_linear_446_4423" x1="11.9459" y1="63.7181" x2="28.2018" y2="47.086" gradientUnits="userSpaceOnUse">
<stop stop-color="#32A071"/>
<stop offset="0.0685" stop-color="#2DA771"/>
<stop offset="0.4762" stop-color="#15CF74"/>
<stop offset="0.8009" stop-color="#06E775"/>
<stop offset="1" stop-color="#00F076"/>
</linearGradient>
</defs>
</svg>
